<svg xmlns="http://www.w3.org/2000/svg" viewBox="0 0 285.66 332.96"><defs><style>.cls-1{fill:#252324;}.cls-2{fill:#262425;}.cls-3{fill:#84a73c;}.cls-4{fill:#82a538;}.cls-5{fill:#97c12e;}.cls-6{fill:#9db641;}.cls-7{fill:#4b4c46;}.cls-8{fill:#97c12d;}.cls-9{fill:#bfd655;}.cls-10{fill:#6a6664;}.cls-11{fill:#608067;}.cls-12{fill:#abcd23;}</style></defs><title>Logo Agro2</title><g id="Layer_2" data-name="Layer 2"><g id="Layer_1-2" data-name="Layer 1"><path class="cls-1" d="M193.85,260.22,210,288.66h-8.55c-.65,0-.7-.6-.91-1q-7.5-13.15-14.95-26.34a1.81,1.81,0,0,0-1.86-1.06c-7.47,0-14.95,0-22.43,0-1.2,0-1.4.35-1.4,1.46.05,8.56,0,17.12.06,25.67,0,1.11-.32,1.32-1.32,1.27-1.88-.08-3.76-.07-5.64,0-.89,0-1.12-.19-1.12-1.1,0-10.64,0-21.28,0-31.91,0-10.2,0-20.4,0-30.59,0-1,.22-1.25,1.23-1.24q17.82.06,35.63,0a26.92,26.92,0,0,1,8.74,1.24c6.5,2.23,10.52,6.66,11.44,13.57,1,7.25-1,13.45-6.95,18.07C199.84,258.4,197.69,259.29,193.85,260.22Zm-18.34-7.54c4.24,0,8.48,0,12.72,0a21.28,21.28,0,0,0,3.82-.27c4.07-.73,7.15-2.68,8.29-6.92a13.41,13.41,0,0,0,.28-5.12,9.37,9.37,0,0,0-6.76-8.31,15,15,0,0,0-4.84-.73c-9.35,0-18.71,0-28.06,0-.85,0-1.06.24-1.06,1.07,0,6.4,0,12.79,0,19.19,0,1,.37,1.14,1.23,1.13C165.92,252.66,170.72,252.68,175.51,252.68Z"/><path class="cls-2" d="M285.66,256.48c-.13,12.69-5.17,22.72-16.16,29.42-5.88,3.59-12.42,4.73-19.22,4.41-12.31-.59-21.61-6.23-27.66-17-3.39-6-4.31-12.65-3.92-19.47.57-9.88,4.51-18.12,12.25-24.4,6.73-5.46,14.57-7.42,23.07-7,11.71.58,20.73,5.87,26.93,15.82C284.17,243.44,285.65,249.51,285.66,256.48ZM252.14,230a23.19,23.19,0,0,0-15,4.75c-9,7-11.35,16.5-9.69,27.31a24.38,24.38,0,0,0,25.75,20.6c10.15-.48,17.33-5.42,21.66-14.5,2.31-4.85,2.7-10.05,2.18-15.35C275.72,239.44,265.51,230.06,252.14,230Z"/><path class="cls-2" d="M122.79,254.14c4,0,7.92,0,11.88,0,.78,0,1,.21,1,1,0,5.92,0,11.84,0,17.76a2.66,2.66,0,0,1-.41,1.46q-9.32,15-27,16c-8.55.43-16.42-1.57-23.16-7.1-7.67-6.3-11.56-14.52-12.09-24.36-.41-7.63.86-14.92,5.12-21.42,6.18-9.41,15-14.39,26.2-15,8.87-.44,16.92,1.88,23.83,7.63a32.59,32.59,0,0,1,6.05,6.78c.4.59.39.87-.23,1.29-1.82,1.22-3.6,2.52-5.38,3.81-.48.35-.72.43-1.06-.19-5.12-9.19-15.83-13.48-27.1-11.13C90.58,232.69,83,241.31,81.6,251.78a30.68,30.68,0,0,0,1.47,15.11,24.23,24.23,0,0,0,22.37,15.82c9.07.27,16.18-3.29,21.47-10.62a3.28,3.28,0,0,0,.7-2.09c0-2.4-.06-4.8,0-7.2,0-.91-.2-1.23-1.18-1.22-5,.06-10.08,0-15.12.06-1.15,0-1.39-.36-1.33-1.4.08-1.64.07-3.28,0-4.92,0-.92.19-1.22,1.17-1.21C115,254.17,118.91,254.14,122.79,254.14Z"/><path class="cls-2" d="M70.37,288.66c-2.78,0-5.45,0-8.12,0-.74,0-.81-.53-1-1-2.6-5.12-5.21-10.24-7.76-15.39a1.63,1.63,0,0,0-1.72-1.05q-16.68,0-33.36,0a1.69,1.69,0,0,0-1.78,1.15c-2.48,5.14-5,10.25-7.51,15.38a1.34,1.34,0,0,1-1.45.89c-2.47-.06-4.95,0-7.44,0a2.19,2.19,0,0,1,.44-1.25q15.29-31.28,30.57-62.57a1.48,1.48,0,0,1,1.62-1q2.22.1,4.44,0a1.5,1.5,0,0,1,1.63,1q9.1,18.53,18.26,37,6.35,12.81,12.68,25.63C70,287.84,70.16,288.2,70.37,288.66ZM35.05,235,20.92,263.62H49.31Z"/><path class="cls-3" d="M241.22,306.78l-7.42,11.13c-1.57,2.35-3.17,4.69-4.7,7.07-.49.77-.69.75-1.19,0-3.91-5.92-7.87-11.81-11.81-17.71a1,1,0,0,0-.57-.46V308c0,7.6,0,15.19,0,22.79,0,1.07-.28,1.34-1.33,1.32-2.73-.07-2.73,0-2.73-2.78,0-9.63,0-19.27,0-28.91,0-1.07.32-1.24,1.33-1.34a3.68,3.68,0,0,1,3.9,2.09c3.61,5.74,7.38,11.37,11.1,17,.69,1.07.69,1.07,1.43-.05,3.94-6,7.88-11.9,11.78-17.88a2.24,2.24,0,0,1,2.22-1.18c2.32.09,2.32,0,2.32,2.34,0,9.8,0,19.59,0,29.39,0,1-.23,1.3-1.25,1.28-2.86-.06-2.86,0-2.86-2.87V306.86Z"/><path class="cls-3" d="M131.7,333a27,27,0,0,1-16.18-5.09c-.77-.54-.9-.94-.28-1.67s1-2.07,1.77-2.3,1.61.94,2.45,1.46c4.51,2.78,9.31,4.33,14.68,3.64a11.19,11.19,0,0,0,4.61-1.57c2.11-1.34,3.37-3.21,3.05-5.8s-2.26-3.91-4.59-4.64c-2.58-.81-5.3-.69-8-1a32.86,32.86,0,0,1-7.64-1.38c-2.76-1-4.84-2.7-5.41-5.7a7.54,7.54,0,0,1,3.21-7.85c3-2.28,6.56-2.86,10.21-2.71a26.4,26.4,0,0,1,13.89,4.68c.76.52.9.93.27,1.65s-1,1.9-1.76,2.17-1.46-.86-2.23-1.34a19.47,19.47,0,0,0-14.18-3,8.2,8.2,0,0,0-3.68,1.65,3.68,3.68,0,0,0,.85,6.55,22.5,22.5,0,0,0,7.62,1.41c2.91.2,5.84.26,8.63,1.22,4.37,1.5,7,4.67,7.13,8.53.17,4.06-2.15,7.51-6.31,9.45A19.39,19.39,0,0,1,131.7,333Z"/><path class="cls-3" d="M37.33,323.51v-5.38c0-6,0-11.92,0-17.87,0-.89.21-1.17,1.13-1.16,3.05,0,3.05,0,3.05,3.07q0,14.26,0,28.54c0,.47.34,1.22-.36,1.34s-1.54.32-2.2-.47c-2.53-3-5.11-5.91-7.67-8.87L18.57,308.05a5.18,5.18,0,0,0-.53-.4V309c0,7.28,0,14.55,0,21.83,0,1-.16,1.4-1.28,1.36-2.81-.08-2.81,0-2.81-2.81,0-9.56,0-19.11,0-28.67,0-.49-.39-1.28.33-1.46a2.16,2.16,0,0,1,2.4.56c2.56,3.05,5.18,6.06,7.78,9.08q6.12,7.13,12.25,14.24A3.59,3.59,0,0,0,37.33,323.51Z"/><path class="cls-3" d="M98,332.11c-4.12,0-8.24,0-12.36,0-.91,0-1.13-.26-1.13-1.15q0-15.36,0-30.72c0-.88.21-1.16,1.12-1.16q11.76.06,23.52,0c.93,0,1.23.24,1.22,1.21-.05,2.62,0,2.62-2.68,2.62-6,0-11.92,0-17.88,0-.92,0-1.25.22-1.22,1.19.06,2.44,0,4.88,0,7.32,0,.91.19,1.25,1.19,1.23,3.59-.06,7.2,0,10.79-.05,1,0,1.21.29,1.19,1.22-.05,2.6,0,2.6-2.67,2.6-3.16,0-6.32,0-9.48,0-.79,0-1,.23-1,1,0,3.28,0,6.56,0,9.84,0,.86.29,1.06,1.1,1.06,6.88,0,13.76,0,20.64,0,1,0,1.38.22,1.34,1.31-.08,2.51,0,2.51-2.51,2.51Z"/><path class="cls-3" d="M283.29,332.11c-1.47.54-2.2-.47-2.84-1.89-.92-2.08-2-4.08-3-6.13a1.39,1.39,0,0,0-1.47-.9c-5.36,0-10.72,0-16.08,0a1.43,1.43,0,0,0-1.51,1c-1.12,2.38-2.32,4.73-3.42,7.12a1.21,1.21,0,0,1-1.37.83,13,13,0,0,0-2.16,0c-1.15.11-1.14-.32-.71-1.18q5.58-11.38,11.12-22.8c1.26-2.58,2.54-5.15,3.74-7.76a2,2,0,0,1,2-1.28,2.71,2.71,0,0,1,3,1.88c4.79,9.91,9.68,19.77,14.54,29.65.72,1.47.71,1.47-1,1.47Zm-15.35-27.34-7.16,14.59h13.67c.64,0,.63-.22.39-.7C272.58,314.14,270.33,309.6,267.94,304.77Z"/><path class="cls-3" d="M206.53,332.11c-1.23,0-2.46,0-3.69,0-.67,0-.77-.49-1-.89-1.21-2.38-2.42-4.76-3.57-7.16a1.3,1.3,0,0,0-1.36-.88q-8.15,0-16.3,0a1.2,1.2,0,0,0-1.27.8c-1.16,2.46-2.38,4.88-3.54,7.33a1.15,1.15,0,0,1-1.27.8,16,16,0,0,0-2.4,0c-1.06.09-1-.33-.61-1.07q7.59-15.51,15.14-31.06a1.33,1.33,0,0,1,1.22-.87c1.91-.25,2.89.41,3.77,2.25,4.71,9.9,9.62,19.7,14.46,29.53A2.07,2.07,0,0,1,206.53,332.11Zm-24.89-12.74h13.61c.93,0,.59-.45.37-.89-1.44-2.89-2.86-5.78-4.3-8.67-.8-1.61-1.62-3.22-2.52-5C186.37,309.76,184,314.49,181.64,319.37Z"/><path class="cls-3" d="M46.13,299.16c1.21,0,2.45,0,3.68,0,.66,0,.77.49,1,.9q4.65,9.7,9.28,19.43c.8,1.69,1.6,3.38,2.42,5.07.11.24.16.61.5.6s.34-.39.46-.63c3.83-8,7.68-16,11.49-24.07.44-.94.92-1.53,2-1.3a3.46,3.46,0,0,0,.72,0c2.45,0,2.43,0,1.34,2.25Q71.9,316.18,64.8,331c-.36.77-.73,1.29-1.76,1.2S61.57,332,61.11,331c-4.87-10.31-9.82-20.58-14.75-30.87A1.27,1.27,0,0,1,46.13,299.16Z"/><path class="cls-3" d="M161.86,299.16c4.84,0,9.68,0,14.51,0,1.1,0,1.32.32,1.29,1.34-.07,2.47,0,2.47-2.54,2.47h-9.59c-1.71,0-1.71,0-1.71,1.65,0,8.71,0,17.42,0,26.14,0,1-.18,1.45-1.34,1.41-2.82-.09-2.82,0-2.82-2.81,0-8.35,0-16.71,0-25.06,0-1-.22-1.38-1.31-1.36-3.8.07-7.6,0-11.39,0-.84,0-1.08-.24-1.08-1.08,0-2.72,0-2.72,2.75-2.72Z"/><path class="cls-4" d="M4.13,315.66c0,5.08,0,10.16,0,15.24,0,.88-.15,1.25-1.16,1.24-3-.05-3,0-3-3,0-9.64,0-19.27,0-28.91,0-1.09.3-1.33,1.33-1.3,2.8.06,2.8,0,2.8,2.82Z"/><path class="cls-5" d="M116.59,42.65a5.88,5.88,0,0,1,1.16-2.46q11.16-19.57,22.37-39.13A2.67,2.67,0,0,1,140.89,0c1,1.61,1.88,3.21,2.82,4.81l21.72,36.73a8.47,8.47,0,0,1,.38.87l-7.41,13-9.6,16.78-14.37,0h-.23c-1.61-2.76-3.2-5.52-4.81-8.27-3.56-6-7.11-12.1-10.71-18.12A10.7,10.7,0,0,0,116.59,42.65Z"/><path class="cls-6" d="M71,208.69c-.28,0-.56.06-.84.06H22.57c-.24,0-.48,0-.89,0,1-1.74,1.9-3.39,2.84-5q10.32-18.1,20.64-36.22c.19-.34.43-.65.65-1H81.13l0,0L85,173.06a46.11,46.11,0,0,1,3.11,5.47,1.48,1.48,0,0,1,0,.21,35.55,35.55,0,0,0-2.43,4.07q-4.64,8-9.23,16.12C74.65,202.17,72.85,205.44,71,208.69Z"/><path class="cls-7" d="M239.06,166.5q4.8,8.06,9.6,16.11Q256,195,263.38,207.49c.22.36.42.73.72,1.25H215.55c-.32,0-.63,0-1-.06a5.7,5.7,0,0,0-1.07-2.23q-6.51-11.08-13.1-22.13a31.48,31.48,0,0,0-3.35-5.34v-.23c.65-1.1,1.31-2.18,1.94-3.29,1.68-3,3.34-6,5-9l0,0Z"/><path class="cls-8" d="M208.34,114.65c1.23,1.12,1.82,2.66,2.65,4,3.32,5.55,6.58,11.14,9.87,16.72.2.34.49.64.46,1.07-1.78,2.52-3.15,5.3-4.7,8-4.27,7.31-8.38,14.71-12.56,22.08l0,0H191.34c-.42,0-.89-.15-1.24.24H156.44c-.5,0-1.06.18-1.46-.31l0,0,.53.06q16.5,0,33,0c.36,0,.82.27,1.1-.22-2.13-4.15-4.65-8.08-7-12.12s-4.82-8.18-7.25-12.25a53.7,53.7,0,0,0-3.35-5.42L172,136c.41,0,.46-.42.61-.68,1.63-2.83,3.27-5.67,4.89-8.52q3.45-6.08,6.88-12.18l0,0Z"/><path class="cls-8" d="M63.15,136q6-10.56,11.95-21.12a1.45,1.45,0,0,1,.24-.26H99.62a5.1,5.1,0,0,0,.35.87c2.69,4.54,5.38,9.09,8.11,13.61,1.39,2.3,2.63,4.7,4.23,6.88l.06.42c-1,.76-1.3,1.94-1.88,2.94-3.2,5.48-6.34,11-9.47,16.52-2,3.52-4,7.07-5.94,10.6H81.16l0,0c-.17-.27-.34-.53-.5-.81-4.26-7.16-8.53-14.31-12.75-21.48C66.28,141.48,64.53,138.86,63.15,136Z"/><path class="cls-6" d="M99.62,114.66h-.24q-5.91-10-11.8-20a.79.79,0,0,0-.68-.42q4.18-7.35,8.38-14.71c1.36-2.38,2.76-4.75,4.14-7.12H133c.42,0,.89.15,1.25-.23h.23a8.87,8.87,0,0,0,1.54,3c1.89,3.14,3.59,6.39,5.64,9.43l0,.24c-.94,1.57-1.91,3.12-2.81,4.7q-5.61,9.83-11.18,19.68a36.37,36.37,0,0,0-2.86,5.33l-.4.08Z"/><path class="cls-7" d="M141.65,84.9a2,2,0,0,1,0-.24c1.21-2.1,2.4-4.2,3.64-6.27a64.58,64.58,0,0,1,3.56-6c.56,0,1.12,0,1.68,0h33.09l12.6,21.33c-.27.54-.51,1.08-.81,1.6q-5.49,9.66-11,19.32l0,0-25,0a.9.9,0,0,1-.21-.08c-1.87-3.74-4.18-7.23-6.27-10.85q-4.08-7.08-8.31-14.09A41.21,41.21,0,0,0,141.65,84.9Z"/><path class="cls-7" d="M88.15,178.74a1.48,1.48,0,0,0,0-.21q3.45-6,6.91-12h35.3a.86.86,0,0,1,.23,0,1.48,1.48,0,0,0,.3.88c1.13,1.87,2.23,3.76,3.35,5.64l8.59,14.3v.25c-.27.4-.55.78-.79,1.19-2.6,4.53-5.22,9-7.76,13.62a61.59,61.59,0,0,0-3.44,6.28h-24.7c-.2-.43-.35-.89-.59-1.3Q98.17,195,90.76,182.66A15.24,15.24,0,0,0,88.15,178.74Z"/><path class="cls-6" d="M142.81,187.61v-.25a3.26,3.26,0,0,0,.29-.36c3.18-5.56,6.4-11.11,9.52-16.7a17,17,0,0,0,2-3.79l.39-.09c.4.49,1,.31,1.46.31H190.1c1.21,2,2.43,4.09,3.62,6.14s2.24,3.91,3.36,5.87V179a53.27,53.27,0,0,0-2.88,4.9q-7.09,12.41-14.18,24.81H155.53c-2.12-3.51-4.23-7-6.36-10.54S145.08,191,142.81,187.61Z"/><path class="cls-9" d="M63.15,136c1.38,2.83,3.13,5.45,4.73,8.16,4.22,7.17,8.49,14.32,12.75,21.48.16.28.33.54.5.81H45.81l17-29.72Z"/><path class="cls-10" d="M88.15,178.74a15.24,15.24,0,0,1,2.61,3.92q7.42,12.33,14.77,24.73c.24.41.39.87.59,1.3-6.15,0-12.29.05-18.44.05-5.55,0-11.09,0-16.64-.05,1.81-3.25,3.61-6.52,5.45-9.76q4.59-8.07,9.23-16.12A35.55,35.55,0,0,1,88.15,178.74Z"/><path class="cls-11" d="M204.06,166.52c4.18-7.37,8.29-14.77,12.56-22.08,1.55-2.66,2.92-5.44,4.7-8,3.5,5.89,7,11.76,10.5,17.66,2.43,4.11,4.82,8.24,7.24,12.36Z"/><path class="cls-9" d="M134.2,72.18c-.36.38-.83.23-1.25.23H99.42l10-17.56q3.35-5.84,6.68-11.67a1.11,1.11,0,0,1,.45-.53,10.7,10.7,0,0,1,2.09,3.14c3.6,6,7.15,12.07,10.71,18.12C131,66.66,132.59,69.42,134.2,72.18Z"/><path class="cls-11" d="M183.58,72.42H150.49c-.56,0-1.12,0-1.68,0a1.62,1.62,0,0,0,0-.22l9.6-16.78,7.41-13q4.6,7.76,9.21,15.51Q179.31,65.16,183.58,72.42Z"/><path class="cls-10" d="M180,208.69q7.08-12.41,14.18-24.81a53.27,53.27,0,0,1,2.88-4.9,31.48,31.48,0,0,1,3.35,5.34q6.62,11,13.1,22.13a5.7,5.7,0,0,1,1.07,2.23l-4.54.06H181.45C181,208.74,180.49,208.71,180,208.69Z"/><path class="cls-4" d="M142.81,187.61c2.27,3.42,4.22,7,6.36,10.53s4.24,7,6.36,10.54c-.59,0-1.18.08-1.78.08H132.13c-.44,0-.88,0-1.31-.06a61.59,61.59,0,0,1,3.44-6.28c2.54-4.57,5.16-9.09,7.76-13.62C142.26,188.39,142.54,188,142.81,187.61Z"/><path class="cls-4" d="M184.36,114.67q5.5-9.66,11-19.32c.3-.52.54-1.06.81-1.6,2,3,3.72,6.17,5.57,9.26,2.09,3.47,4.12,7,6.18,10.44.21.37.54.71.41,1.2Z"/><path class="cls-4" d="M86.9,94.24a.79.79,0,0,1,.68.42q5.9,10,11.8,20h-24c1.27-2.74,2.9-5.29,4.38-7.91C82.09,102.55,84.51,98.41,86.9,94.24Z"/><path class="cls-4" d="M148.8,72.16a1.62,1.62,0,0,1,0,.22,64.58,64.58,0,0,0-3.56,6c-1.24,2.07-2.43,4.17-3.64,6.27-2.05-3-3.75-6.29-5.64-9.43a8.87,8.87,0,0,1-1.54-3Z"/><path class="cls-4" d="M95.05,166.49q-3.47,6-6.91,12A46.11,46.11,0,0,0,85,173.06l-3.87-6.56Z"/><path class="cls-4" d="M197.08,178.75c-1.12-2-2.22-3.92-3.36-5.87s-2.41-4.09-3.62-6.14c.35-.39.82-.24,1.24-.24H204c-1.67,3-3.33,6-5,9C198.39,176.57,197.73,177.65,197.08,178.75Z"/><path class="cls-12" d="M155,166.44a62.65,62.65,0,0,1,3.53-6.43c4.27-7.58,8.6-15.12,12.91-22.67a10.33,10.33,0,0,1,.6-.87,53.7,53.7,0,0,1,3.35,5.42c2.43,4.07,4.88,8.14,7.25,12.25s4.85,8,7,12.12H156.91c-.46,0-1-.18-1.37.23Z"/><path class="cls-11" d="M172,136q-6.28-10.68-12.58-21.36l25,0q-3.44,6.09-6.88,12.18c-1.62,2.85-3.26,5.69-4.89,8.52C172.41,135.61,172.36,136,172,136Z"/><path class="cls-6" d="M155.54,166.5c.4-.41.91-.23,1.37-.23h32.72c-.28.49-.74.22-1.1.22Q172,166.51,155.54,166.5Z"/><path class="cls-11" d="M112.37,136.44l11.36,19,6.62,11.08H95.08c2-3.53,3.94-7.08,5.94-10.6,3.13-5.52,6.27-11,9.47-16.52C111.07,138.38,111.4,137.2,112.37,136.44Z"/><path class="cls-9" d="M124.4,114.69a60.35,60.35,0,0,1-3,5.52q-4.5,7.92-9,15.81c-1.6-2.18-2.84-4.58-4.23-6.88-2.73-4.52-5.42-9.07-8.11-13.61a5.1,5.1,0,0,1-.35-.87Z"/><path class="cls-10" d="M159.16,114.59l-29.81,0-4.55,0a36.37,36.37,0,0,1,2.86-5.33q5.55-9.87,11.18-19.68c.9-1.58,1.87-3.13,2.81-4.7a41.21,41.21,0,0,1,2.93,4.75q4.21,7,8.31,14.09C155,107.36,157.29,110.85,159.16,114.59Z"/><path class="cls-10" d="M130.58,166.54l16.73,0c2.42,0,4.85,0,7.28,0a17,17,0,0,1-2,3.79c-3.12,5.59-6.34,11.14-9.52,16.7a3.26,3.26,0,0,1-.29.36l-8.59-14.3c-1.12-1.88-2.22-3.77-3.35-5.64A1.48,1.48,0,0,1,130.58,166.54Z"/></g></g></svg>